<?xml version="1.0" standalone="no"?>
<!DOCTYPE svg PUBLIC "-//W3C//DTD SVG 20010904//EN"
 "http://www.w3.org/TR/2001/REC-SVG-20010904/DTD/svg10.dtd">
<svg version="1.0" xmlns="http://www.w3.org/2000/svg"
 width="1000.000000pt" height="1000.000000pt" viewBox="0 0 1000.000000 1000.000000"
 preserveAspectRatio="xMidYMid meet">
<metadata>
Created by potrace 1.11, written by Peter Selinger 2001-2013
</metadata>
<g transform="translate(0.000000,1000.000000) scale(0.100000,-0.100000)"
fill="#000000" stroke="none">
<path d="M2228 8822 c-31 -20 -117 -71 -192 -112 -75 -41 -136 -77 -136 -80 0
-3 26 -18 58 -35 31 -16 118 -65 192 -107 l135 -78 2530 0 c1711 0 2551 -4
2595 -11 75 -12 151 -44 197 -83 45 -38 91 -138 108 -232 19 -105 19 -312 0
-392 -54 -229 -217 -333 -566 -361 -89 -7 -914 -11 -2501 -11 l-2368 0 0 -220
0 -220 2409 0 c1549 0 2446 4 2512 10 356 35 619 150 776 339 67 81 137 220
163 324 72 289 36 665 -86 898 -119 226 -313 345 -652 398 -53 8 -758 11
-2595 10 l-2522 -1 -57 -36z"/>
<path d="M2560 8185 l0 -75 2345 0 2345 0 0 75 0 75 -2345 0 -2345 0 0 -75z"/>
<path d="M2560 7875 l0 -75 2345 0 2345 0 0 75 0 75 -2345 0 -2345 0 0 -75z"/>
<path d="M2560 7555 l0 -75 2345 0 2345 0 0 75 0 75 -2345 0 -2345 0 0 -75z"/>
<path d="M2990 6493 c-644 -35 -1047 -275 -1196 -711 -54 -157 -68 -260 -67
-477 1 -145 6 -217 21 -305 87 -481 342 -745 798 -825 122 -22 -126 -21 3377
-17 l2817 2 -2 258 -3 257 -3030 2 c-2677 2 -3039 4 -3104 17 -245 51 -341
206 -355 571 -14 362 100 555 380 645 197 63 38 60 3217 60 l2892 0 175 101
c96 56 198 116 227 132 l52 31 -57 34 c-31 20 -133 79 -227 134 l-170 98
-2845 -2 c-1565 -1 -2870 -3 -2900 -5z"/>
<path d="M2820 5695 l0 -75 2795 0 2795 0 0 75 0 75 -2795 0 -2795 0 0 -75z"/>
<path d="M2820 5315 l0 -75 2795 0 2795 0 0 75 0 75 -2795 0 -2795 0 0 -75z"/>
<path d="M2820 4945 l0 -75 2793 2 2792 3 3 73 3 72 -2796 0 -2795 0 0 -75z"/>
<path d="M1063 3613 l-253 -146 248 -143 247 -144 3338 0 c2319 0 3367 -3
3435 -11 276 -30 400 -144 459 -420 25 -118 25 -434 0 -533 -66 -261 -231
-393 -577 -463 -79 -16 -313 -17 -3362 -20 l-3278 -3 0 -290 0 -290 3228 0
c3475 0 3329 -2 3580 50 272 56 505 168 664 319 171 161 270 352 325 626 26
129 25 517 -1 660 -55 301 -156 508 -324 666 -142 134 -325 220 -562 266 -91
17 -245 18 -3505 20 l-3410 3 -252 -147z"/>
<path d="M1680 2875 l0 -75 3120 0 3120 0 0 75 0 75 -3120 0 -3120 0 0 -75z"/>
<path d="M1680 2465 l0 -75 3120 0 3120 0 0 75 0 75 -3120 0 -3120 0 0 -75z"/>
<path d="M1680 2035 l0 -75 3120 0 3120 0 0 75 0 75 -3120 0 -3120 0 0 -75z"/>
</g>
</svg>
