<?xml version="1.0" encoding="utf-8"?>
<!-- Generator: Adobe Illustrator 19.0.0, SVG Export Plug-In . SVG Version: 6.00 Build 0)  -->
<svg version="1.1" id="OBJECTS" xmlns="http://www.w3.org/2000/svg" xmlns:xlink="http://www.w3.org/1999/xlink" x="0px" y="0px"
	 viewBox="0 0 196.7 163.3" style="enable-background:new 0 0 196.7 163.3;" xml:space="preserve">
<style type="text/css">
	.st0{fill:#81D4FA;}
	.st1{fill:#FFFFFF;}
	.st2{fill:#37474F;}
</style>
<g>
	<g>
		<g>
			<path class="st0" d="M100.2,134.7c0,0,41.3-40.5,86.5-38.1v7.8C186.7,104.4,149,102.4,100.2,134.7z"/>
			<path class="st0" d="M100.2,131.6c0,0,32.7-45.5,81.7-48.6v7.8C181.9,90.8,143.2,90.4,100.2,131.6z"/>
			<path class="st0" d="M100.2,137.2c0,0,46-29.6,91.3-27.2v7.8C191.5,117.7,153.4,114.4,100.2,137.2z"/>
		</g>
		<g>
			<path class="st0" d="M96.6,134.7c0,0-41.3-40.5-86.5-38.1v7.8C10.1,104.4,47.8,102.4,96.6,134.7z"/>
			<path class="st0" d="M96.6,131.6c0,0-32.7-45.5-81.7-48.6v7.8C14.9,90.8,53.6,90.4,96.6,131.6z"/>
			<path class="st0" d="M96.6,137.2c0,0-46-29.6-91.3-27.2v7.8C5.3,117.7,43.4,114.4,96.6,137.2z"/>
		</g>
	</g>
	<g>
		<path class="st1" d="M31.1,152.3v5.5h-1.7v-12.8h4.4c1.4,0,2.5,0.3,3.2,0.9s1.1,1.5,1.1,2.7c0,0.7-0.2,1.2-0.5,1.7
			c-0.3,0.5-0.8,0.9-1.5,1.2c0.7,0.2,1.2,0.6,1.5,1.1c0.3,0.5,0.5,1.1,0.5,1.9v1.2c0,0.4,0,0.8,0.1,1.1s0.2,0.6,0.5,0.8v0.2h-1.8
			c-0.2-0.2-0.4-0.5-0.4-0.9s-0.1-0.8-0.1-1.2v-1.2c0-0.7-0.2-1.2-0.6-1.7s-0.9-0.6-1.6-0.6H31.1z M31.1,150.9h2.5
			c1,0,1.7-0.2,2.1-0.6c0.4-0.4,0.6-0.9,0.6-1.7c0-0.7-0.2-1.3-0.6-1.7c-0.4-0.4-1.1-0.6-2-0.6h-2.6V150.9z"/>
		<path class="st1" d="M49.6,151.9h-5.3v4.6h6.2v1.4h-7.9V145h7.8v1.4h-6.1v4.1h5.3V151.9z"/>
		<path class="st1" d="M63.5,156.1c-0.3,0.5-0.8,0.9-1.6,1.3S60.2,158,59,158c-1.5,0-2.7-0.5-3.7-1.5s-1.5-2.2-1.5-3.8v-2.6
			c0-1.6,0.5-2.8,1.4-3.8s2.1-1.5,3.6-1.5c1.4,0,2.5,0.4,3.4,1.1c0.8,0.8,1.2,1.7,1.2,2.9l0,0.1h-1.7c0-0.8-0.3-1.4-0.8-1.9
			c-0.5-0.5-1.2-0.8-2.1-0.8c-1,0-1.8,0.4-2.4,1.1s-0.9,1.7-0.9,2.8v2.7c0,1.1,0.3,2.1,0.9,2.8s1.4,1.1,2.4,1.1
			c0.8,0,1.4-0.1,1.8-0.3c0.4-0.2,0.8-0.4,1-0.7v-2.9h-2.9v-1.4h4.6V156.1z"/>
		<path class="st1" d="M70.2,157.8h-1.7V145h1.7V157.8z"/>
		<path class="st1" d="M82,154.6c0-0.6-0.2-1.1-0.6-1.5s-1.1-0.7-2.2-1c-1.3-0.3-2.3-0.8-3-1.4c-0.7-0.6-1.1-1.4-1.1-2.4
			c0-1,0.4-1.8,1.2-2.5s1.8-1,3.1-1c1.3,0,2.4,0.4,3.2,1.1c0.8,0.8,1.2,1.7,1.2,2.7l0,0.1H82c0-0.7-0.3-1.3-0.8-1.8
			c-0.5-0.5-1.2-0.7-1.9-0.7c-0.8,0-1.4,0.2-1.9,0.6c-0.4,0.4-0.6,0.9-0.6,1.5c0,0.6,0.2,1,0.7,1.4c0.5,0.4,1.2,0.7,2.3,1
			c1.3,0.3,2.3,0.8,2.9,1.5s1,1.5,1,2.4c0,1-0.4,1.9-1.2,2.5s-1.9,0.9-3.2,0.9c-1.2,0-2.3-0.3-3.3-1s-1.4-1.6-1.4-2.8l0-0.1h1.7
			c0,0.8,0.3,1.4,0.9,1.9c0.6,0.4,1.3,0.7,2.1,0.7c0.8,0,1.5-0.2,1.9-0.6S82,155.2,82,154.6z"/>
		<path class="st1" d="M97,146.4h-4.2v11.4H91v-11.4h-4.2V145H97V146.4z"/>
		<path class="st1" d="M102.3,152.3v5.5h-1.7v-12.8h4.4c1.4,0,2.5,0.3,3.2,0.9s1.1,1.5,1.1,2.7c0,0.7-0.2,1.2-0.5,1.7
			c-0.3,0.5-0.8,0.9-1.5,1.2c0.7,0.2,1.2,0.6,1.5,1.1c0.3,0.5,0.5,1.1,0.5,1.9v1.2c0,0.4,0,0.8,0.1,1.1s0.2,0.6,0.5,0.8v0.2H108
			c-0.2-0.2-0.4-0.5-0.4-0.9s-0.1-0.8-0.1-1.2v-1.2c0-0.7-0.2-1.2-0.6-1.7s-0.9-0.6-1.6-0.6H102.3z M102.3,150.9h2.5
			c1,0,1.7-0.2,2.1-0.6c0.4-0.4,0.6-0.9,0.6-1.7c0-0.7-0.2-1.3-0.6-1.7c-0.4-0.4-1.1-0.6-2-0.6h-2.6V150.9z"/>
		<path class="st1" d="M120.4,154.5h-4.8l-1.1,3.3h-1.8l4.6-12.8h1.5l4.5,12.8h-1.8L120.4,154.5z M116.1,153.1h3.8l-1.9-5.5H118
			L116.1,153.1z"/>
		<path class="st1" d="M136,153.7L136,153.7c0,1.3-0.4,2.3-1.2,3.1s-2,1.2-3.4,1.2c-1.4,0-2.6-0.5-3.5-1.5c-0.9-1-1.4-2.3-1.4-3.9
			v-2.3c0-1.6,0.5-2.9,1.4-3.9c0.9-1,2.1-1.5,3.5-1.5s2.6,0.4,3.5,1.2c0.9,0.8,1.3,1.8,1.2,3.1l0,0.1h-1.7c0-0.9-0.3-1.6-0.8-2.1
			s-1.3-0.8-2.2-0.8c-1,0-1.7,0.4-2.3,1.2s-0.9,1.7-0.9,2.9v2.3c0,1.2,0.3,2.1,0.9,2.9s1.3,1.2,2.3,1.2c1,0,1.7-0.3,2.2-0.8
			c0.5-0.5,0.8-1.2,0.8-2.1H136z"/>
		<path class="st1" d="M142,157.8h-1.7V145h1.7V157.8z"/>
		<path class="st1" d="M152.2,145h1.7v9.1c0,1.2-0.4,2.1-1.1,2.8s-1.7,1.1-2.8,1.1c-1.2,0-2.1-0.3-2.8-0.9c-0.7-0.6-1-1.5-1-2.7
			l0-0.1h1.7c0,0.8,0.2,1.4,0.6,1.8s0.9,0.6,1.6,0.6c0.6,0,1.2-0.2,1.6-0.7s0.6-1.1,0.6-1.8V145z"/>
		<path class="st1" d="M165.1,154.5h-4.8l-1.1,3.3h-1.8L162,145h1.5l4.5,12.8h-1.8L165.1,154.5z M160.8,153.1h3.8l-1.9-5.5h-0.1
			L160.8,153.1z"/>
	</g>
	<g>
		<g>
			<path class="st1" d="M24.2,49.7l3.3,2.3l-0.7,1l-7.5-5.3l1.8-2.5c0.6-0.8,1.2-1.3,1.9-1.5c0.7-0.2,1.3,0,2,0.5
				c0.4,0.3,0.7,0.6,0.8,1s0.2,0.8,0.1,1.3c0.4-0.3,0.8-0.4,1.3-0.4c0.4,0,0.9,0.2,1.3,0.5l0.7,0.5c0.2,0.2,0.5,0.3,0.7,0.4
				c0.2,0.1,0.4,0.1,0.6,0.1l0.1,0.1l-0.7,1c-0.2,0-0.4,0-0.7-0.1c-0.3-0.1-0.5-0.3-0.7-0.4l-0.7-0.5c-0.4-0.3-0.8-0.4-1.2-0.3
				c-0.4,0.1-0.8,0.3-1,0.7L24.2,49.7z M23.4,49.2l1-1.4c0.4-0.6,0.6-1,0.5-1.5s-0.3-0.8-0.7-1.1c-0.4-0.3-0.8-0.4-1.2-0.3
				c-0.4,0.1-0.8,0.4-1.1,0.9l-1.1,1.5L23.4,49.2z"/>
			<path class="st1" d="M34.3,39.7L32,42.2l1.2,2.2l-0.8,0.9l-4.7-8.6l0.7-0.8l9,3.8l-0.8,0.9L34.3,39.7z M31.5,41.2l1.8-2l-3.8-1.7
				l0,0L31.5,41.2z"/>
			<path class="st1" d="M42.1,32.3c-0.3-0.3-0.6-0.5-1-0.5c-0.4,0-1,0.1-1.6,0.5c-0.8,0.4-1.6,0.6-2.3,0.6c-0.7,0-1.3-0.3-1.7-0.8
				c-0.5-0.5-0.7-1.2-0.6-1.9s0.5-1.4,1.1-2c0.7-0.6,1.5-0.9,2.3-0.9c0.8,0,1.4,0.3,1.9,0.9l0,0l-0.9,0.8c-0.3-0.4-0.8-0.6-1.3-0.6
				c-0.5,0-1,0.2-1.4,0.5c-0.4,0.4-0.7,0.8-0.7,1.2s0.1,0.8,0.4,1.1c0.3,0.3,0.6,0.4,1,0.4s1-0.2,1.7-0.5c0.8-0.4,1.6-0.6,2.3-0.6
				c0.7,0,1.2,0.3,1.7,0.8c0.5,0.6,0.7,1.2,0.5,1.9c-0.1,0.7-0.5,1.4-1.2,2c-0.7,0.6-1.4,0.9-2.2,1c-0.8,0.1-1.5-0.2-2.1-0.9l0,0
				l0.9-0.8c0.4,0.4,0.8,0.6,1.4,0.6c0.5,0,1-0.3,1.4-0.6c0.4-0.4,0.7-0.8,0.8-1.2S42.4,32.7,42.1,32.3z"/>
			<path class="st1" d="M49.3,24.5l-3,2.1l1.9,2.7l3.6-2.5l0.6,0.8l-4.6,3.2l-5.3-7.6l4.5-3.1l0.6,0.8L44,23.3l1.7,2.5l3-2.1
				L49.3,24.5z"/>
			<path class="st1" d="M56.8,25l-1.1,0.6l-4.6-8l1.1-0.6L56.8,25z"/>
			<path class="st1" d="M67,20l-1.1,0.5L59,15.8l0,0l2.9,6.4l-1.1,0.5L57,14.4l1.1-0.5l6.8,4.7l0,0l-2.9-6.4l1.1-0.5L67,20z"/>
			<path class="st1" d="M72.5,18.1l-1.2,0.4l-2.9-8.8l1.2-0.4L72.5,18.1z"/>
			<path class="st1" d="M81.3,6.3l1.3,6c0.2,1,0.1,1.8-0.4,2.5C81.7,15.5,81,16,80,16.2c-1,0.2-1.8,0.1-2.5-0.3
				c-0.7-0.4-1.2-1.1-1.4-2.1l-1.3-6l1.2-0.3l1.3,6c0.2,0.7,0.5,1.2,0.9,1.5c0.5,0.3,1,0.4,1.6,0.3c0.6-0.1,1.1-0.5,1.4-0.9
				c0.3-0.5,0.4-1.1,0.2-1.8l-1.3-6L81.3,6.3z M80.7,15.9c-0.2,0.3-0.4,0.5-0.5,0.8c-0.1,0.2-0.1,0.5-0.1,0.7c0,0.2,0.1,0.3,0.2,0.4
				c0.1,0.1,0.3,0.1,0.5,0c0.1,0,0.2-0.1,0.3-0.1c0.1-0.1,0.2-0.1,0.3-0.2l0.4,0.7c-0.1,0.1-0.3,0.2-0.4,0.3
				c-0.2,0.1-0.4,0.2-0.6,0.2c-0.4,0.1-0.7,0-1-0.1s-0.5-0.5-0.6-0.9c-0.1-0.3,0-0.7,0.2-1c0.2-0.4,0.5-0.7,1-1L80.7,15.9z"/>
			<path class="st1" d="M99.5,12.8c-0.2,0.3-0.6,0.7-1.1,1s-1.2,0.5-2.1,0.5c-1,0-1.9-0.3-2.6-1c-0.7-0.7-1.1-1.6-1.1-2.7l0-1.9
				c0-1.1,0.3-2,0.9-2.8C94.1,5.1,95,4.7,96,4.7c1,0,1.8,0.2,2.4,0.8C99,6,99.3,6.7,99.3,7.5l0,0l-1.2,0c0-0.6-0.2-1-0.6-1.4
				c-0.4-0.4-0.9-0.5-1.5-0.5c-0.7,0-1.2,0.3-1.6,0.8c-0.4,0.5-0.6,1.2-0.6,2l0,1.9c0,0.8,0.3,1.5,0.7,2c0.5,0.5,1,0.8,1.7,0.8
				c0.5,0,1-0.1,1.3-0.2s0.5-0.3,0.7-0.5l-0.1-2.1l-2,0.1l0-1l3.3-0.1L99.5,12.8z"/>
			<path class="st1" d="M105.3,14.3l-1.2-0.1l0.7-9.2l1.2,0.1L105.3,14.3z"/>
			<path class="st1" d="M114.5,13.8L114.5,13.8l4.3-6.8l1.5,0.3l-1.7,9.1l-1.2-0.2l1.3-6.8l0,0l-4,6.3l-0.8-0.2l-1.4-7.6l0,0l-1.3,7
				l-1.2-0.2l1.7-9.1l1.6,0.3L114.5,13.8z"/>
			<path class="st1" d="M129.2,19.8l-1.2-0.4l-1.8-8.1h0l-2.3,6.7l-1.2-0.4l3-8.7l1.2,0.4l1.8,8.1h0l2.3-6.7l1.2,0.4L129.2,19.8z"/>
			<path class="st1" d="M138.6,21.5l-3-1.5l-1.8,1.8l-1.1-0.6l7-6.8l0.9,0.5l-1.3,9.7l-1.1-0.6L138.6,21.5z M136.3,19.2l2.4,1.2
				l0.6-4.1l0,0L136.3,19.2z"/>
			<path class="st1" d="M143.8,26.1l4.2,2.8l-0.5,0.8l-5.4-3.5l0.5-0.8l8.1-3.5l-4-2.6l0.5-0.8l5.2,3.4l-0.5,0.8L143.8,26.1z"/>
			<path class="st1" d="M151.7,32.9l-1-0.8l5.7-7.2l1,0.8L151.7,32.9z"/>
			<path class="st1" d="M164.2,31.6l0.9,0.8l-4.5,4.8c-0.6,0.6-1.2,0.9-2,1c-0.7,0-1.4-0.3-2-0.8c-0.6-0.6-0.9-1.2-1-1.9
				c0-0.7,0.2-1.3,0.8-1.9l0,0l0.9,0.8c-0.4,0.4-0.6,0.8-0.6,1.2c0,0.4,0.2,0.7,0.5,1.1c0.3,0.3,0.7,0.4,1.1,0.4
				c0.4,0,0.8-0.3,1.2-0.7L164.2,31.6z"/>
			<path class="st1" d="M169.1,45.2c-0.9,0.7-1.8,1.1-2.8,1s-1.9-0.5-2.6-1.3c-0.7-0.8-0.9-1.7-0.8-2.7s0.7-1.8,1.5-2.6l1.3-1.1
				c0.9-0.7,1.8-1.1,2.8-1c1,0,1.8,0.4,2.5,1.2c0.7,0.8,1,1.8,0.9,2.8c-0.1,1-0.6,1.9-1.5,2.6L169.1,45.2z M169.6,43.2
				c0.6-0.5,1-1.2,1.2-1.9s-0.1-1.3-0.5-1.9c-0.5-0.5-1-0.8-1.7-0.8s-1.4,0.3-2,0.9l-1.3,1.1c-0.7,0.5-1.1,1.2-1.2,1.8
				c-0.1,0.7,0,1.3,0.5,1.8c0.5,0.6,1.1,0.9,1.8,0.9c0.7,0,1.4-0.3,2-0.8L169.6,43.2z"/>
			<path class="st1" d="M173.2,53.7c0.4-0.2,0.6-0.5,0.6-0.9s0-1-0.2-1.7c-0.3-0.9-0.4-1.7-0.3-2.4s0.4-1.2,1-1.6
				c0.6-0.4,1.3-0.5,2-0.3c0.7,0.2,1.3,0.7,1.8,1.4c0.5,0.8,0.7,1.6,0.6,2.4c-0.2,0.8-0.5,1.4-1.2,1.7l0,0l-0.6-1
				c0.4-0.3,0.7-0.7,0.8-1.2c0.1-0.5,0-1-0.3-1.4c-0.3-0.5-0.7-0.8-1.1-0.9c-0.4-0.1-0.8,0-1.2,0.2c-0.3,0.2-0.5,0.5-0.6,1
				c0,0.4,0.1,1,0.3,1.7c0.3,0.9,0.4,1.7,0.2,2.3c-0.1,0.7-0.5,1.2-1.1,1.5c-0.6,0.4-1.3,0.5-2,0.3c-0.7-0.2-1.3-0.7-1.8-1.5
				c-0.5-0.7-0.7-1.5-0.6-2.3c0.1-0.8,0.4-1.5,1.1-1.9l0,0l0.6,1c-0.5,0.3-0.7,0.7-0.8,1.3c0,0.5,0.1,1,0.4,1.5
				c0.3,0.5,0.7,0.8,1.1,0.9C172.4,54,172.8,53.9,173.2,53.7z"/>
		</g>
	</g>
	<g>
		<polygon class="st0" points="186.6,157.4 173.5,157.4 173.5,145.4 186.6,145.4 181.2,151.4 		"/>
		<polygon class="st0" points="10.2,145.4 23.3,145.4 23.3,157.4 10.2,157.4 15.6,151.4 		"/>
	</g>
	<g>
		<path class="st2" d="M142.1,38.5H51v55.6h38.2c1.7,2.4,4.5,4.1,7.7,4.1c3.2,0,6-1.6,7.7-4.1h37.6V38.5z"/>
		<path class="st0" d="M69.1,35.2c-8.8,3.8-15.5-2.5-15.5-2.5v51.4c0,0,6.7,6.3,15.5,2.5c8.8-3.8,19.2-6,26.8,1.2V36.4
			C88.3,29.2,77.9,31.4,69.1,35.2z"/>
		<path class="st0" d="M124.6,35.2c8.8,3.8,15.5-2.5,15.5-2.5v51.4c0,0-6.7,6.3-15.5,2.5c-8.8-3.8-19.2-6-26.8,1.2V36.4
			C105.4,29.2,115.9,31.4,124.6,35.2z"/>
		<g>
			<path class="st1" d="M101.8,42.1c0,0,0.5-0.3,1.4-0.7c0.5-0.2,1-0.5,1.7-0.6c0.3-0.1,0.7-0.2,1.1-0.3c0.4-0.1,0.8-0.2,1.2-0.3
				c1.7-0.3,3.7-0.4,5.8-0.2c1.1,0.1,2.2,0.3,3.3,0.5c1.1,0.2,2.2,0.5,3.3,0.9c1.1,0.3,2.2,0.7,3.2,1.1c1.1,0.4,2,0.9,3,1.2
				c1.9,0.7,3.8,1,5.5,1c1.7-0.1,3-0.3,4-0.6c0.9-0.3,1.5-0.5,1.5-0.5s-0.1,0.1-0.4,0.2c-0.2,0.1-0.6,0.3-1,0.5
				c-0.9,0.4-2.3,0.9-4,1c-1.7,0.2-3.8,0-5.8-0.7c-1-0.4-2-0.8-3-1.2c-1-0.4-2.1-0.7-3.1-1.1c-1.1-0.3-2.1-0.6-3.2-0.9
				c-1.1-0.2-2.1-0.4-3.1-0.6c-1-0.1-2-0.2-3-0.2c-1,0-1.8,0-2.7,0.1c-0.4,0.1-0.8,0.1-1.2,0.2c-0.4,0.1-0.7,0.1-1.1,0.2
				c-0.7,0.1-1.2,0.3-1.7,0.5C102.3,41.9,101.8,42.1,101.8,42.1z"/>
		</g>
		<g>
			<path class="st1" d="M101.8,48.7c0,0,0.5-0.3,1.4-0.7c0.5-0.2,1-0.5,1.7-0.6c0.3-0.1,0.7-0.2,1.1-0.3c0.4-0.1,0.8-0.2,1.2-0.3
				c1.7-0.3,3.7-0.4,5.8-0.2c1.1,0.1,2.2,0.3,3.3,0.5c1.1,0.2,2.2,0.5,3.3,0.9c1.1,0.3,2.2,0.7,3.2,1.1c1.1,0.4,2,0.9,3,1.2
				c1.9,0.7,3.8,1,5.5,1c1.7-0.1,3-0.3,4-0.6c0.9-0.3,1.5-0.5,1.5-0.5s-0.1,0.1-0.4,0.2c-0.2,0.1-0.6,0.3-1,0.5
				c-0.9,0.4-2.3,0.9-4,1c-1.7,0.2-3.8,0-5.8-0.7c-1-0.4-2-0.8-3-1.2c-1-0.4-2.1-0.7-3.1-1.1c-1.1-0.3-2.1-0.6-3.2-0.9
				c-1.1-0.2-2.1-0.4-3.1-0.6c-1-0.1-2-0.2-3-0.2c-1,0-1.8,0-2.7,0.1c-0.4,0.1-0.8,0.1-1.2,0.2c-0.4,0.1-0.7,0.1-1.1,0.2
				c-0.7,0.1-1.2,0.3-1.7,0.5C102.3,48.5,101.8,48.7,101.8,48.7z"/>
		</g>
		<g>
			<path class="st1" d="M101.8,55.3c0,0,0.5-0.3,1.4-0.7c0.5-0.2,1-0.5,1.7-0.6c0.3-0.1,0.7-0.2,1.1-0.3c0.4-0.1,0.8-0.2,1.2-0.3
				c1.7-0.3,3.7-0.4,5.8-0.2c1.1,0.1,2.2,0.3,3.3,0.5c1.1,0.2,2.2,0.5,3.3,0.9c1.1,0.3,2.2,0.7,3.2,1.1c1.1,0.4,2,0.9,3,1.2
				c1.9,0.7,3.8,1,5.5,1c1.7-0.1,3-0.3,4-0.6c0.9-0.3,1.5-0.5,1.5-0.5s-0.1,0.1-0.4,0.2c-0.2,0.1-0.6,0.3-1,0.5
				c-0.9,0.4-2.3,0.9-4,1c-1.7,0.2-3.8,0-5.8-0.7c-1-0.4-2-0.8-3-1.2c-1-0.4-2.1-0.7-3.1-1.1c-1.1-0.3-2.1-0.6-3.2-0.9
				c-1.1-0.2-2.1-0.4-3.1-0.6c-1-0.1-2-0.2-3-0.2c-1,0-1.8,0-2.7,0.1c-0.4,0.1-0.8,0.1-1.2,0.2c-0.4,0.1-0.7,0.1-1.1,0.2
				c-0.7,0.1-1.2,0.3-1.7,0.5C102.3,55.1,101.8,55.3,101.8,55.3z"/>
		</g>
		<g>
			<path class="st1" d="M101.8,61.9c0,0,0.5-0.3,1.4-0.7c0.5-0.2,1-0.5,1.7-0.6c0.3-0.1,0.7-0.2,1.1-0.3c0.4-0.1,0.8-0.2,1.2-0.3
				c1.7-0.3,3.7-0.4,5.8-0.2c1.1,0.1,2.2,0.3,3.3,0.5c1.1,0.2,2.2,0.5,3.3,0.9c1.1,0.3,2.2,0.7,3.2,1.1c1.1,0.4,2,0.9,3,1.2
				c1.9,0.7,3.8,1,5.5,1c1.7-0.1,3-0.3,4-0.6c0.9-0.3,1.5-0.5,1.5-0.5s-0.1,0.1-0.4,0.2c-0.2,0.1-0.6,0.3-1,0.5
				c-0.9,0.4-2.3,0.9-4,1c-1.7,0.2-3.8,0-5.8-0.7c-1-0.4-2-0.8-3-1.2c-1-0.4-2.1-0.7-3.1-1.1c-1.1-0.3-2.1-0.6-3.2-0.9
				c-1.1-0.2-2.1-0.4-3.1-0.6c-1-0.1-2-0.2-3-0.2c-1,0-1.8,0-2.7,0.1c-0.4,0.1-0.8,0.1-1.2,0.2c-0.4,0.1-0.7,0.1-1.1,0.2
				c-0.7,0.1-1.2,0.3-1.7,0.5C102.3,61.7,101.8,61.9,101.8,61.9z"/>
		</g>
		<g>
			<g>
				<path class="st1" d="M92.1,42.1c0,0-0.5-0.2-1.4-0.5c-0.5-0.1-1-0.3-1.7-0.5c-0.3-0.1-0.7-0.1-1.1-0.2c-0.4-0.1-0.8-0.1-1.2-0.2
					c-0.8-0.1-1.7-0.1-2.7-0.1c-0.9,0-1.9,0.1-3,0.2c-1,0.1-2.1,0.3-3.1,0.6c-1.1,0.2-2.1,0.5-3.2,0.9c-1.1,0.3-2.1,0.7-3.1,1.1
					c-1,0.4-2,0.8-3,1.2c-2.1,0.7-4.1,0.9-5.8,0.7c-1.7-0.1-3.1-0.6-4-1c-0.5-0.2-0.8-0.4-1-0.5c-0.2-0.1-0.4-0.2-0.4-0.2
					s0.5,0.2,1.5,0.5c0.9,0.3,2.3,0.6,4,0.6c1.6,0.1,3.6-0.3,5.5-1c1-0.4,1.9-0.9,3-1.2c1-0.4,2.1-0.8,3.2-1.1
					c1.1-0.3,2.2-0.6,3.3-0.9c1.1-0.2,2.2-0.4,3.3-0.5c2.1-0.2,4.1-0.1,5.8,0.2c0.4,0.1,0.8,0.2,1.2,0.3c0.4,0.1,0.7,0.2,1.1,0.3
					c0.7,0.2,1.2,0.5,1.7,0.6C91.6,41.8,92.1,42.1,92.1,42.1z"/>
			</g>
			<g>
				<path class="st1" d="M92.1,48.7c0,0-0.5-0.2-1.4-0.5c-0.5-0.1-1-0.3-1.7-0.5c-0.3-0.1-0.7-0.1-1.1-0.2c-0.4-0.1-0.8-0.1-1.2-0.2
					c-0.8-0.1-1.7-0.1-2.7-0.1c-0.9,0-1.9,0.1-3,0.2c-1,0.1-2.1,0.3-3.1,0.6c-1.1,0.2-2.1,0.5-3.2,0.9c-1.1,0.3-2.1,0.7-3.1,1.1
					c-1,0.4-2,0.8-3,1.2c-2.1,0.7-4.1,0.9-5.8,0.7c-1.7-0.1-3.1-0.6-4-1c-0.5-0.2-0.8-0.4-1-0.5c-0.2-0.1-0.4-0.2-0.4-0.2
					s0.5,0.2,1.5,0.5c0.9,0.3,2.3,0.6,4,0.6c1.6,0.1,3.6-0.3,5.5-1c1-0.4,1.9-0.9,3-1.2c1-0.4,2.1-0.8,3.2-1.1
					c1.1-0.3,2.2-0.6,3.3-0.9c1.1-0.2,2.2-0.4,3.3-0.5c2.1-0.2,4.1-0.1,5.8,0.2c0.4,0.1,0.8,0.2,1.2,0.3c0.4,0.1,0.7,0.2,1.1,0.3
					c0.7,0.2,1.2,0.5,1.7,0.6C91.6,48.4,92.1,48.7,92.1,48.7z"/>
			</g>
			<g>
				<path class="st1" d="M92.1,55.3c0,0-0.5-0.2-1.4-0.5c-0.5-0.1-1-0.3-1.7-0.5c-0.3-0.1-0.7-0.1-1.1-0.2c-0.4-0.1-0.8-0.1-1.2-0.2
					c-0.8-0.1-1.7-0.1-2.7-0.1c-0.9,0-1.9,0.1-3,0.2c-1,0.1-2.1,0.3-3.1,0.6c-1.1,0.2-2.1,0.5-3.2,0.9c-1.1,0.3-2.1,0.7-3.1,1.1
					c-1,0.4-2,0.8-3,1.2c-2.1,0.7-4.1,0.9-5.8,0.7c-1.7-0.1-3.1-0.6-4-1c-0.5-0.2-0.8-0.4-1-0.5c-0.2-0.1-0.4-0.2-0.4-0.2
					s0.5,0.2,1.5,0.5c0.9,0.3,2.3,0.6,4,0.6c1.6,0.1,3.6-0.3,5.5-1c1-0.4,1.9-0.9,3-1.2c1-0.4,2.1-0.8,3.2-1.1
					c1.1-0.3,2.2-0.6,3.3-0.9c1.1-0.2,2.2-0.4,3.3-0.5c2.1-0.2,4.1-0.1,5.8,0.2c0.4,0.1,0.8,0.2,1.2,0.3c0.4,0.1,0.7,0.2,1.1,0.3
					c0.7,0.2,1.2,0.5,1.7,0.6C91.6,55,92.1,55.3,92.1,55.3z"/>
			</g>
			<g>
				<path class="st1" d="M92.1,61.9c0,0-0.5-0.2-1.4-0.5c-0.5-0.1-1-0.3-1.7-0.5c-0.3-0.1-0.7-0.1-1.1-0.2c-0.4-0.1-0.8-0.1-1.2-0.2
					c-0.8-0.1-1.7-0.1-2.7-0.1c-0.9,0-1.9,0.1-3,0.2c-1,0.1-2.1,0.3-3.1,0.6c-1.1,0.2-2.1,0.5-3.2,0.9c-1.1,0.3-2.1,0.7-3.1,1.1
					c-1,0.4-2,0.8-3,1.2c-2.1,0.7-4.1,0.9-5.8,0.7c-1.7-0.1-3.1-0.6-4-1c-0.5-0.2-0.8-0.4-1-0.5c-0.2-0.1-0.4-0.2-0.4-0.2
					s0.5,0.2,1.5,0.5c0.9,0.3,2.3,0.6,4,0.6c1.6,0.1,3.6-0.3,5.5-1c1-0.4,1.9-0.9,3-1.2c1-0.4,2.1-0.8,3.2-1.1
					c1.1-0.3,2.2-0.6,3.3-0.9c1.1-0.2,2.2-0.4,3.3-0.5c2.1-0.2,4.1-0.1,5.8,0.2c0.4,0.1,0.8,0.2,1.2,0.3c0.4,0.1,0.7,0.2,1.1,0.3
					c0.7,0.2,1.2,0.5,1.7,0.6C91.6,61.6,92.1,61.9,92.1,61.9z"/>
			</g>
		</g>
	</g>
</g>
</svg>
