<?xml version="1.0" encoding="utf-8"?>
<!-- Generator: Adobe Illustrator 19.0.0, SVG Export Plug-In . SVG Version: 6.00 Build 0)  -->
<svg version="1.1" id="Objects" xmlns="http://www.w3.org/2000/svg" xmlns:xlink="http://www.w3.org/1999/xlink" x="0px" y="0px"
	 viewBox="0 0 661.5 514.5" style="enable-background:new 0 0 661.5 514.5;" xml:space="preserve">
<style type="text/css">
	.st0{fill:#4E3D5F;}
	.st1{fill:#3C3C3B;}
	.st2{fill:#41868F;}
	.st3{fill:#DB495E;}
	.st4{fill:#FFFFFF;}
</style>
<g>
	<g>
		<g>
			<g>
				<path class="st0" d="M425.4,103.5c38.4,0,57.9-16,57.9-47.5c0-47.7-34.3-47.7-47.1-47.7c-1.8,0-3.7,0-5.5,0c-1.6,0-3.2,0-4.7,0
					H198.6v21.3H426c1.6,0,3.3,0,5.1,0c1.7,0,3.4-0.1,5.1-0.1c16.1,0,25.8,1.8,25.8,26.4c0,19.1-9.9,26.3-36.6,26.3H198.6v21.2
					L425.4,103.5L425.4,103.5z M425.4,103.5"/>
				<rect x="211.9" y="37.2" class="st1" width="226.8" height="7"/>
				<rect x="211.9" y="51.9" class="st1" width="226.8" height="7"/>
				<rect x="211.9" y="67.6" class="st1" width="226.8" height="7.1"/>
			</g>
			<polygon class="st2" points="198.6,8.3 180.1,19 198.6,29.7 			"/>
			<polygon class="st0" points="185.3,16 185.3,22 180.1,19 			"/>
		</g>
		<g>
			<g>
				<path class="st3" d="M234.1,235.4c1.9,0,3.8-0.1,5.6-0.1h270.7V210H239.7c-1.9,0-4,0-6,0c-2,0-4,0.1-6.1,0.1
					c-19.2,0-30.8-2.1-30.8-31.4c0-22.8,11.9-31.3,43.6-31.3h269.9v-25.3H240.5c-45.7,0-68.9,19-68.9,56.6
					c0,56.7,40.8,56.7,56.1,56.7C229.8,235.4,232,235.4,234.1,235.4L234.1,235.4z M234.1,235.4"/>
				<rect x="224.6" y="193.3" class="st1" width="270" height="7"/>
				<rect x="224.6" y="175.7" class="st1" width="270" height="7.1"/>
				<rect x="224.6" y="157.1" class="st1" width="270" height="7.1"/>
			</g>
			<polygon class="st0" points="510.4,147.4 532.4,134.8 510.4,122.1 			"/>
			<polygon class="st3" points="526.2,138.3 526.2,131.2 532.4,134.8 			"/>
		</g>
		<g>
			<g>
				<path class="st2" d="M151.9,282.6H454c2.2,0,4.4,0,6.7,0c2.2,0,4.5-0.1,6.8-0.1c21.4,0,34.4,2.3,34.4,35.1
					c0,25.5-13.2,34.9-48.7,34.9l-301.3,0v28.3h301.3c51,0,76.9-21.2,76.9-63.2c0-63.3-45.5-63.3-62.6-63.3c-2.4,0-4.9,0-7.2,0.1
					c-2.2,0-4.2,0-6.3,0H151.9V282.6z M151.9,254.4"/>
				<rect x="169.5" y="293.7" class="st1" width="301.3" height="7.1"/>
				<rect x="169.5" y="313.4" class="st1" width="301.3" height="7.1"/>
				<rect x="169.5" y="334.1" class="st1" width="301.3" height="7.1"/>
			</g>
			<polygon class="st3" points="151.9,254.4 127.4,268.5 151.9,282.6 			"/>
			<polygon class="st2" points="134.3,264.5 134.3,272.4 127.4,268.5 			"/>
		</g>
	</g>
	<g>
		<path class="st4" d="M20.1,425.7v15.9h-8v-39.8h13.8c4.5,0,8.1,1,10.7,3.1c2.6,2.1,3.8,5,3.8,8.7c0,2-0.5,3.8-1.6,5.3
			c-1.1,1.5-2.7,2.7-4.7,3.6c2.4,0.7,4,1.9,5.1,3.5c1,1.6,1.5,3.6,1.5,6v2.9c0,1.1,0.2,2.3,0.5,3.5c0.3,1.2,0.8,2.1,1.5,2.7v0.6
			h-8.2c-0.7-0.6-1.2-1.5-1.4-2.9c-0.2-1.3-0.3-2.7-0.3-3.9V432c0-2-0.5-3.5-1.6-4.6c-1.1-1.1-2.6-1.7-4.6-1.7H20.1z M20.1,419.6
			h5.7c2.2,0,3.9-0.5,5-1.4c1.1-0.9,1.6-2.4,1.6-4.2c0-1.8-0.6-3.3-1.7-4.3c-1.1-1.1-2.7-1.6-4.9-1.6h-5.8V419.6z"/>
		<path class="st4" d="M71.4,433.1H58.5l-2.7,8.6h-8.3l13.4-39.8h8.2l13.4,39.8h-8.3L71.4,433.1z M60.4,426.8h9l-4.4-14h-0.2
			L60.4,426.8z"/>
		<path class="st4" d="M109.8,431.3c0-1.5-0.5-2.8-1.6-3.7s-2.9-1.8-5.6-2.6c-4.6-1.4-8.1-3-10.5-4.9c-2.4-1.9-3.6-4.4-3.6-7.7
			c0-3.3,1.3-5.9,4-8c2.7-2.1,6.1-3.1,10.3-3.1c4.4,0,8,1.1,10.7,3.3c2.7,2.2,4,5.1,3.9,8.8l-0.1,0.2h-7.7c0-2-0.6-3.5-1.8-4.6
			s-2.9-1.6-5.1-1.6c-2,0-3.5,0.5-4.6,1.4c-1.1,0.9-1.6,2.2-1.6,3.6c0,1.3,0.6,2.5,1.8,3.3c1.2,0.9,3.2,1.8,6,2.7
			c4.4,1.2,7.7,2.9,10,4.9s3.4,4.6,3.4,7.9c0,3.4-1.3,6.1-4,8.1c-2.7,2-6.2,3-10.6,3c-4.3,0-8-1.1-11-3.2c-3.1-2.1-4.6-5.3-4.5-9.5
			l0.1-0.2h7.7c0,2.4,0.7,4.1,2.1,5.2c1.4,1.1,3.3,1.7,5.6,1.7c2.1,0,3.8-0.4,4.9-1.3C109.2,434,109.8,432.8,109.8,431.3z"/>
		<path class="st4" d="M149.2,424.2h-14.8v11.4H152v6.1h-25.5v-39.8H152v6.2h-17.5v10h14.8V424.2z"/>
		<path class="st4" d="M168.9,441.7h-8v-39.8h8V441.7z"/>
		<path class="st4" d="M211.8,441.7h-8l-16.1-26.9l-0.2,0v26.8h-8v-39.8h8l16.1,26.8l0.2,0v-26.8h8V441.7z"/>
		<path class="st4" d="M230.5,441.7h-8v-39.8h8V441.7z"/>
		<path class="st4" d="M272.7,401.8v26.1c0,4.5-1.5,8-4.5,10.5c-3,2.5-6.8,3.8-11.6,3.8c-4.7,0-8.6-1.3-11.5-3.8
			c-2.9-2.5-4.4-6-4.4-10.5v-26.1h8v26.1c0,2.7,0.7,4.7,2.1,6.1c1.4,1.4,3.3,2.1,5.8,2.1c2.5,0,4.4-0.7,5.9-2.1
			c1.4-1.4,2.2-3.4,2.2-6.1v-26.1H272.7z M259.7,441.7c-1,1-1.7,1.8-2.2,2.5c-0.5,0.7-0.7,1.5-0.7,2.4c0,0.5,0.2,0.9,0.5,1.3
			c0.3,0.4,0.9,0.6,1.9,0.6c0.5,0,1-0.1,1.4-0.2c0.4-0.1,0.8-0.2,1.2-0.4l1,4.2c-0.7,0.3-1.4,0.6-2.2,0.9c-0.8,0.2-1.8,0.3-2.9,0.3
			c-2,0-3.6-0.5-4.9-1.5c-1.3-1-1.9-2.5-1.9-4.3c0-1.4,0.4-2.7,1.3-4c0.8-1.3,2.2-2.4,3.9-3.4L259.7,441.7z"/>
		<path class="st4" d="M329.7,436.2c-1.2,1.6-3.1,3-5.6,4.2c-2.5,1.2-5.6,1.8-9.5,1.8c-4.8,0-8.8-1.5-11.8-4.5
			c-3.1-3-4.6-7-4.6-11.8v-8.3c0-4.8,1.5-8.7,4.5-11.8c3-3,6.8-4.6,11.5-4.6c4.9,0,8.6,1.2,11.2,3.5c2.6,2.3,3.8,5.4,3.7,9.2
			l-0.1,0.2h-7.5c0-2.1-0.6-3.8-1.8-4.9c-1.2-1.2-3-1.8-5.3-1.8c-2.4,0-4.4,0.9-5.9,2.8c-1.5,1.9-2.2,4.3-2.2,7.3v8.4
			c0,3,0.8,5.5,2.3,7.4c1.5,1.9,3.6,2.8,6.2,2.8c1.9,0,3.4-0.2,4.5-0.6c1.1-0.4,2-0.9,2.6-1.4v-7.7h-7.7v-5.5h15.7V436.2z"/>
		<path class="st4" d="M347.8,441.7h-8v-39.8h8V441.7z"/>
		<path class="st4" d="M379.1,431.2h0.2l10.2-29.3h10.4v39.8h-8v-27.2l-0.2,0l-9.8,27.2h-5.4l-9.8-27.3l-0.2,0v27.2h-8v-39.8H369
			L379.1,431.2z"/>
		<path class="st4" d="M442.3,441.7h-8l-16.1-26.9l-0.2,0v26.8h-8v-39.8h8l16.1,26.8l0.2,0v-26.8h8V441.7z"/>
		<path class="st4" d="M473.6,433.1h-12.9l-2.7,8.6h-8.3l13.4-39.8h8.2l13.4,39.8h-8.3L473.6,433.1z M462.7,426.8h9l-4.4-14h-0.2
			L462.7,426.8z"/>
		<path class="st4" d="M499.1,435.5h18.3v6.1h-27.7v-4.2l17.7-29.5h-17.7v-6.2H517v4L499.1,435.5z"/>
		<path class="st4" d="M534.4,441.7h-8v-39.8h8V441.7z"/>
		<path class="st4" d="M561,401.8h8v27.5c0,3.9-1.2,7.1-3.6,9.4c-2.4,2.3-5.5,3.5-9.3,3.5c-4.2,0-7.5-1-10-3.1s-3.6-5.1-3.6-9.1
			l0.1-0.2h7.8c0,2.1,0.5,3.7,1.6,4.7s2.4,1.5,4.2,1.5c1.5,0,2.7-0.6,3.6-1.8c0.9-1.2,1.4-2.9,1.4-5V401.8z"/>
		<path class="st4" d="M611.2,425.3c0,4.9-1.5,8.9-4.6,12.1c-3.1,3.2-7.1,4.8-12,4.8c-4.9,0-8.9-1.6-12-4.8
			c-3.1-3.2-4.6-7.2-4.6-12.1v-7.2c0-4.9,1.5-8.9,4.6-12.1c3.1-3.2,7-4.8,11.9-4.8c4.9,0,9,1.6,12.1,4.8c3.1,3.2,4.6,7.2,4.6,12.1
			V425.3z M603.3,418.1c0-3.1-0.8-5.6-2.3-7.6c-1.5-2-3.7-3-6.4-3c-2.7,0-4.8,1-6.3,3c-1.5,2-2.3,4.5-2.3,7.6v7.2
			c0,3.2,0.8,5.7,2.3,7.7c1.5,2,3.6,3,6.3,3c2.7,0,4.9-1,6.4-3c1.5-2,2.3-4.6,2.3-7.7V418.1z"/>
		<path class="st4" d="M641.1,431.3c0-1.5-0.5-2.8-1.6-3.7s-2.9-1.8-5.6-2.6c-4.6-1.4-8.1-3-10.5-4.9c-2.4-1.9-3.6-4.4-3.6-7.7
			c0-3.3,1.3-5.9,4-8c2.7-2.1,6.1-3.1,10.3-3.1c4.4,0,8,1.1,10.7,3.3c2.7,2.2,4,5.1,3.9,8.8l-0.1,0.2h-7.7c0-2-0.6-3.5-1.8-4.6
			s-2.9-1.6-5.1-1.6c-2,0-3.5,0.5-4.6,1.4c-1.1,0.9-1.6,2.2-1.6,3.6c0,1.3,0.6,2.5,1.8,3.3c1.2,0.9,3.2,1.8,6,2.7
			c4.4,1.2,7.7,2.9,10,4.9s3.4,4.6,3.4,7.9c0,3.4-1.3,6.1-4,8.1c-2.7,2-6.2,3-10.6,3c-4.3,0-8-1.1-11-3.2c-3.1-2.1-4.6-5.3-4.5-9.5
			l0.1-0.2h7.7c0,2.4,0.7,4.1,2.1,5.2c1.4,1.1,3.3,1.7,5.6,1.7c2.1,0,3.8-0.4,4.9-1.3C640.5,434,641.1,432.8,641.1,431.3z"/>
	</g>
	<g>
		<path class="st4" d="M26.7,496.4h0.1l10-25.4h5.3v31.3h-4.2v-23.4l-0.1,0l-9.5,23.5h-2.9L15.5,478l-0.1,0v24.2h-4.2V471h5.6
			L26.7,496.4z"/>
		<path class="st4" d="M50,490.4c0-3.4,0.9-6.3,2.8-8.5c1.9-2.2,4.4-3.3,7.6-3.3c3.2,0,5.8,1.1,7.6,3.3c1.9,2.2,2.8,5.1,2.8,8.5v0.5
			c0,3.5-0.9,6.3-2.8,8.5c-1.9,2.2-4.4,3.3-7.6,3.3c-3.2,0-5.7-1.1-7.6-3.3s-2.8-5-2.8-8.5V490.4z M54.2,490.9
			c0,2.5,0.5,4.5,1.6,6.1c1,1.6,2.6,2.4,4.6,2.4c2,0,3.6-0.8,4.6-2.4c1-1.6,1.6-3.6,1.6-6.1v-0.5c0-2.4-0.5-4.5-1.6-6.1
			c-1.1-1.6-2.6-2.4-4.6-2.4c-2,0-3.5,0.8-4.6,2.4c-1,1.6-1.6,3.6-1.6,6.1V490.9z"/>
		<path class="st4" d="M84.6,491.5h-2.2v10.7h-4.2v-33.5h4.2v19.4h2.1l7-9.2h5.1l-8.4,10.7l9.2,12.5h-5L84.6,491.5z"/>
		<path class="st4" d="M107.5,473.1h-4.2v-4.3h4.2V473.1z M107.5,502.3h-4.2V479h4.2V502.3z"/>
		<path class="st4" d="M120,479l0.3,3.5c0.8-1.2,1.7-2.2,2.9-2.9c1.2-0.7,2.5-1,4-1c2.5,0,4.4,0.7,5.8,2.2c1.4,1.5,2.1,3.7,2.1,6.8
			v14.7h-4.2v-14.6c0-2-0.4-3.5-1.2-4.4c-0.8-0.9-2-1.3-3.7-1.3c-1.3,0-2.4,0.3-3.3,0.8c-0.9,0.5-1.6,1.3-2.2,2.2v17.3h-4.2V479H120
			z"/>
		<path class="st4" d="M148,473.1h-4.2v-4.3h4.2V473.1z M148,502.3h-4.2V479h4.2V502.3z"/>
		<path class="st4" d="M171.5,498.8c-0.7,1.2-1.7,2.2-2.8,2.9c-1.1,0.7-2.5,1-4,1c-2.5,0-4.5-0.8-5.9-2.4c-1.4-1.6-2.1-4.1-2.1-7.6
			V479h4.2v13.8c0,2.5,0.4,4.2,1.1,5.1c0.7,0.9,1.9,1.4,3.4,1.4c1.5,0,2.7-0.3,3.7-0.9c1-0.6,1.7-1.5,2.2-2.6V479h4.2v23.2h-3.8
			L171.5,498.8z M175.1,502.3c-1,0.7-1.8,1.5-2.4,2.1c-0.6,0.7-0.8,1.4-0.8,2.2c0,0.6,0.2,1.1,0.5,1.4s0.8,0.5,1.6,0.5
			c0.4,0,0.7-0.1,1.1-0.2c0.3-0.1,0.7-0.2,1.1-0.4l0.7,2.6c-0.5,0.3-1.1,0.5-1.7,0.7c-0.6,0.2-1.4,0.3-2.2,0.3
			c-1.4,0-2.5-0.4-3.3-1.2c-0.9-0.8-1.3-1.9-1.3-3.3c0-1.1,0.4-2.2,1.3-3.3c0.9-1,2.2-1.9,4-2.8L175.1,502.3z"/>
		<path class="st4" d="M208.1,482.8l-2.2-0.1c-1.1,0-2.1,0.3-2.8,0.8c-0.8,0.5-1.4,1.3-1.8,2.2v16.6h-4.2V479h3.8l0.4,3.4
			c0.7-1.2,1.5-2.1,2.4-2.8c1-0.7,2.1-1,3.3-1c0.3,0,0.6,0,0.9,0.1c0.3,0.1,0.5,0.1,0.7,0.2L208.1,482.8z"/>
		<path class="st4" d="M223.9,502.7c-3.3,0-5.9-1.1-7.8-3.2c-1.9-2.1-2.8-4.9-2.8-8.4v-0.9c0-3.3,1-6.1,2.9-8.3
			c1.9-2.2,4.3-3.3,7.1-3.3c3.1,0,5.4,1,7,2.9c1.6,1.9,2.3,4.5,2.3,7.7v2.2h-14.9l-0.1,0.1c0,2.3,0.5,4.2,1.5,5.7
			c1,1.5,2.6,2.2,4.7,2.2c1.4,0,2.7-0.2,3.8-0.6c1.1-0.4,2-1,2.8-1.7l1.7,2.8c-0.8,0.8-1.9,1.5-3.3,2
			C227.5,502.4,225.8,502.7,223.9,502.7z M223.2,481.9c-1.5,0-2.7,0.6-3.7,1.7s-1.6,2.6-1.8,4.4l0,0.1h10.5v-0.3
			c0-1.7-0.4-3.1-1.2-4.2C226.3,482.5,225,481.9,223.2,481.9z"/>
		<path class="st4" d="M238.8,491.1c0-3.7,0.8-6.8,2.4-9c1.6-2.3,3.8-3.4,6.7-3.4c1.5,0,2.8,0.3,3.9,0.9c1.1,0.6,2.1,1.5,2.8,2.6
			l0.5-3h3.4v23.4c0,3-0.9,5.3-2.6,6.9c-1.7,1.6-4.2,2.4-7.5,2.4c-1.1,0-2.3-0.2-3.6-0.5c-1.3-0.3-2.4-0.7-3.4-1.3l0.6-3.3
			c0.8,0.4,1.8,0.8,3,1c1.2,0.3,2.3,0.4,3.4,0.4c2.1,0,3.6-0.5,4.5-1.4c0.9-0.9,1.4-2.4,1.4-4.3v-2.6c-0.8,1-1.7,1.7-2.7,2.2
			c-1.1,0.5-2.3,0.8-3.7,0.8c-2.8,0-5.1-1-6.6-3.1c-1.6-2.1-2.4-4.8-2.4-8.1V491.1z M243,491.5c0,2.3,0.5,4.2,1.4,5.6
			c1,1.4,2.4,2.1,4.4,2.1c1.3,0,2.3-0.3,3.2-0.9s1.6-1.4,2.1-2.5v-10.7c-0.5-1-1.3-1.8-2.1-2.4c-0.9-0.6-1.9-0.9-3.2-0.9
			c-2,0-3.5,0.8-4.5,2.5s-1.5,3.9-1.5,6.5V491.5z"/>
		<path class="st4" d="M271.3,473.1h-4.2v-4.3h4.2V473.1z M271.3,502.3h-4.2V479h4.2V502.3z"/>
		<path class="st4" d="M293.5,496c0-0.9-0.4-1.7-1.1-2.3c-0.7-0.6-2.1-1.1-4-1.5c-2.7-0.6-4.8-1.4-6.3-2.5c-1.5-1.1-2.2-2.5-2.2-4.3
			c0-1.9,0.8-3.5,2.4-4.9c1.6-1.3,3.7-2,6.3-2c2.6,0,4.8,0.7,6.4,2.1c1.6,1.4,2.4,3.1,2.3,5l0,0.1h-4c0-1-0.4-1.9-1.3-2.7
			s-2-1.2-3.3-1.2c-1.5,0-2.6,0.3-3.3,1c-0.7,0.7-1.1,1.5-1.1,2.4c0,0.9,0.3,1.6,1,2.1c0.6,0.5,2,1,3.9,1.4c2.9,0.6,5,1.5,6.5,2.6
			c1.5,1.1,2.2,2.5,2.2,4.3c0,2.1-0.8,3.7-2.5,5c-1.7,1.3-3.8,2-6.5,2c-3,0-5.3-0.8-7-2.3c-1.7-1.5-2.5-3.3-2.4-5.3l0-0.1h4
			c0.1,1.5,0.6,2.6,1.7,3.3c1,0.7,2.3,1,3.7,1c1.5,0,2.7-0.3,3.5-1C293.1,497.8,293.5,497,293.5,496z"/>
		<path class="st4" d="M311.1,473.4v5.6h4.4v3.1h-4.4v14.1c0,1.1,0.2,1.9,0.7,2.3c0.5,0.4,1,0.7,1.8,0.7c0.2,0,0.5,0,0.8-0.1
			s0.6-0.1,0.8-0.2l0.6,2.9c-0.3,0.3-0.8,0.5-1.4,0.6c-0.6,0.2-1.2,0.2-1.8,0.2c-1.7,0-3.1-0.5-4.1-1.6c-1-1-1.5-2.7-1.5-4.9v-14.1
			h-3.7V479h3.7v-5.6H311.1z"/>
		<path class="st4" d="M333.2,482.8l-2.2-0.1c-1.1,0-2.1,0.3-2.8,0.8c-0.8,0.5-1.4,1.3-1.8,2.2v16.6h-4.2V479h3.8l0.4,3.4
			c0.7-1.2,1.5-2.1,2.4-2.8c1-0.7,2.1-1,3.3-1c0.3,0,0.6,0,0.9,0.1c0.3,0.1,0.5,0.1,0.7,0.2L333.2,482.8z"/>
		<path class="st4" d="M354.1,502.3c-0.1-0.7-0.3-1.3-0.3-1.9c-0.1-0.5-0.1-1.1-0.1-1.6c-0.8,1.1-1.8,2.1-3.1,2.8s-2.6,1.1-4.1,1.1
			c-2.4,0-4.3-0.6-5.5-1.9c-1.3-1.2-1.9-2.9-1.9-5.1c0-2.2,0.9-4,2.7-5.2c1.8-1.3,4.2-1.9,7.3-1.9h4.6v-2.3c0-1.4-0.4-2.4-1.2-3.2
			s-2-1.2-3.5-1.2c-1.4,0-2.5,0.3-3.3,1s-1.3,1.5-1.3,2.5l-4,0l0-0.1c-0.1-1.7,0.7-3.2,2.4-4.6c1.7-1.4,3.9-2.1,6.5-2.1
			c2.6,0,4.8,0.7,6.4,2c1.6,1.3,2.4,3.3,2.4,5.8v11.2c0,0.8,0,1.6,0.1,2.4s0.2,1.5,0.5,2.3H354.1z M347.1,499.2
			c1.5,0,2.9-0.4,4.1-1.2c1.2-0.8,2-1.7,2.4-2.7v-3.8h-4.7c-1.7,0-3.1,0.4-4.1,1.3c-1,0.9-1.5,1.9-1.5,3c0,1,0.3,1.8,1,2.4
			S345.9,499.2,347.1,499.2z"/>
		<path class="st4" d="M373.7,495.4l0.4,1.6h0.1l0.4-1.6l5.3-16.4h4.3l-8.6,23.2h-3.2l-8.7-23.2h4.3L373.7,495.4z"/>
		<path class="st4" d="M394.8,473.1h-4.2v-4.3h4.2V473.1z M394.8,502.3h-4.2V479h4.2V502.3z"/>
		<path class="st4" d="M407.3,479l0.3,3.1c0.8-1.1,1.7-2,2.9-2.6c1.2-0.6,2.5-0.9,4.1-0.9s2.9,0.4,4,1.1c1.1,0.7,1.9,1.8,2.5,3.2
			c0.7-1.3,1.7-2.4,2.9-3.1c1.2-0.8,2.6-1.1,4.2-1.1c2.4,0,4.2,0.8,5.6,2.4c1.4,1.6,2.1,4.1,2.1,7.3v13.9h-4.2v-13.9
			c0-2.3-0.4-3.9-1.2-4.9c-0.8-1-2-1.4-3.5-1.4c-1.4,0-2.6,0.5-3.5,1.5c-0.9,1-1.4,2.3-1.6,3.8v0.2v14.8h-4.3v-13.9
			c0-2.2-0.4-3.8-1.2-4.8c-0.8-1-2-1.5-3.5-1.5c-1.3,0-2.3,0.3-3.2,0.8c-0.8,0.5-1.5,1.3-1.9,2.2v17.2h-4.2V479H407.3z"/>
		<path class="st4" d="M443.2,490.4c0-3.4,0.9-6.3,2.8-8.5c1.9-2.2,4.4-3.3,7.6-3.3c3.2,0,5.8,1.1,7.6,3.3c1.9,2.2,2.8,5.1,2.8,8.5
			v0.5c0,3.5-0.9,6.3-2.8,8.5c-1.9,2.2-4.4,3.3-7.6,3.3c-3.2,0-5.7-1.1-7.6-3.3s-2.8-5-2.8-8.5V490.4z M447.4,490.9
			c0,2.5,0.5,4.5,1.6,6.1c1,1.6,2.6,2.4,4.6,2.4c2,0,3.6-0.8,4.6-2.4c1-1.6,1.6-3.6,1.6-6.1v-0.5c0-2.4-0.5-4.5-1.6-6.1
			c-1.1-1.6-2.6-2.4-4.6-2.4c-2,0-3.5,0.8-4.6,2.4c-1,1.6-1.6,3.6-1.6,6.1V490.9z"/>
		<path class="st4" d="M498.1,496c0-0.9-0.4-1.7-1.1-2.3c-0.7-0.6-2.1-1.1-4-1.5c-2.7-0.6-4.8-1.4-6.3-2.5c-1.5-1.1-2.2-2.5-2.2-4.3
			c0-1.9,0.8-3.5,2.4-4.9c1.6-1.3,3.7-2,6.3-2c2.6,0,4.8,0.7,6.4,2.1c1.6,1.4,2.4,3.1,2.3,5l0,0.1h-4c0-1-0.4-1.9-1.3-2.7
			s-2-1.2-3.3-1.2c-1.5,0-2.6,0.3-3.3,1c-0.7,0.7-1.1,1.5-1.1,2.4c0,0.9,0.3,1.6,1,2.1c0.6,0.5,2,1,3.9,1.4c2.8,0.6,5,1.5,6.5,2.6
			c1.5,1.1,2.2,2.5,2.2,4.3c0,2.1-0.8,3.7-2.5,5c-1.7,1.3-3.8,2-6.5,2c-3,0-5.3-0.8-7-2.3c-1.7-1.5-2.5-3.3-2.4-5.3l0-0.1h4
			c0.1,1.5,0.6,2.6,1.7,3.3c1,0.7,2.3,1,3.7,1c1.5,0,2.7-0.3,3.5-1C497.6,497.8,498.1,497,498.1,496z"/>
		<path class="st4" d="M514.3,473.1h-4.2v-4.3h4.2V473.1z M514.3,502.3h-4.2V479h4.2V502.3z"/>
		<path class="st4" d="M536.5,496c0-0.9-0.4-1.7-1.1-2.3c-0.7-0.6-2.1-1.1-4-1.5c-2.7-0.6-4.8-1.4-6.3-2.5c-1.5-1.1-2.2-2.5-2.2-4.3
			c0-1.9,0.8-3.5,2.4-4.9c1.6-1.3,3.7-2,6.3-2c2.6,0,4.8,0.7,6.4,2.1c1.6,1.4,2.4,3.1,2.3,5l0,0.1h-4c0-1-0.4-1.9-1.3-2.7
			s-2-1.2-3.3-1.2c-1.5,0-2.6,0.3-3.3,1c-0.7,0.7-1.1,1.5-1.1,2.4c0,0.9,0.3,1.6,1,2.1c0.6,0.5,2,1,3.9,1.4c2.8,0.6,5,1.5,6.5,2.6
			c1.5,1.1,2.2,2.5,2.2,4.3c0,2.1-0.8,3.7-2.5,5c-1.7,1.3-3.8,2-6.5,2c-3,0-5.3-0.8-7-2.3c-1.7-1.5-2.5-3.3-2.4-5.3l0-0.1h4
			c0.1,1.5,0.6,2.6,1.7,3.3c1,0.7,2.3,1,3.7,1c1.5,0,2.7-0.3,3.5-1C536.1,497.8,536.5,497,536.5,496z"/>
		<path class="st4" d="M554.1,473.4v5.6h4.4v3.1h-4.4v14.1c0,1.1,0.2,1.9,0.7,2.3c0.5,0.4,1,0.7,1.8,0.7c0.2,0,0.5,0,0.8-0.1
			s0.6-0.1,0.8-0.2l0.6,2.9c-0.3,0.3-0.8,0.5-1.4,0.6c-0.6,0.2-1.2,0.2-1.8,0.2c-1.7,0-3.1-0.5-4.1-1.6c-1-1-1.5-2.7-1.5-4.9v-14.1
			h-3.7V479h3.7v-5.6H554.1z"/>
		<path class="st4" d="M574.9,502.7c-3.3,0-5.9-1.1-7.8-3.2c-1.9-2.1-2.8-4.9-2.8-8.4v-0.9c0-3.3,1-6.1,2.9-8.3
			c1.9-2.2,4.3-3.3,7.1-3.3c3.1,0,5.4,1,7,2.9c1.6,1.9,2.3,4.5,2.3,7.7v2.2h-14.9l-0.1,0.1c0,2.3,0.5,4.2,1.5,5.7
			c1,1.5,2.6,2.2,4.7,2.2c1.4,0,2.7-0.2,3.8-0.6c1.1-0.4,2-1,2.8-1.7l1.7,2.8c-0.8,0.8-1.9,1.5-3.3,2
			C578.4,502.4,576.8,502.7,574.9,502.7z M574.2,481.9c-1.5,0-2.7,0.6-3.7,1.7s-1.6,2.6-1.8,4.4l0,0.1h10.5v-0.3
			c0-1.7-0.4-3.1-1.2-4.2C577.2,482.5,576,481.9,574.2,481.9z"/>
		<path class="st4" d="M594.3,479l0.3,3.1c0.8-1.1,1.7-2,2.9-2.6c1.2-0.6,2.5-0.9,4.1-0.9s2.9,0.4,4,1.1c1.1,0.7,1.9,1.8,2.5,3.2
			c0.7-1.3,1.7-2.4,2.9-3.1c1.2-0.8,2.6-1.1,4.2-1.1c2.4,0,4.2,0.8,5.6,2.4c1.4,1.6,2.1,4.1,2.1,7.3v13.9h-4.2v-13.9
			c0-2.3-0.4-3.9-1.2-4.9c-0.8-1-2-1.4-3.5-1.4c-1.4,0-2.6,0.5-3.5,1.5c-0.9,1-1.4,2.3-1.6,3.8v0.2v14.8h-4.3v-13.9
			c0-2.2-0.4-3.8-1.2-4.8c-0.8-1-2-1.5-3.5-1.5c-1.3,0-2.3,0.3-3.2,0.8c-0.8,0.5-1.5,1.3-1.9,2.2v17.2h-4.2V479H594.3z"/>
		<path class="st4" d="M645.4,502.3c-0.1-0.7-0.3-1.3-0.3-1.9c-0.1-0.5-0.1-1.1-0.1-1.6c-0.8,1.1-1.8,2.1-3.1,2.8s-2.6,1.1-4.1,1.1
			c-2.4,0-4.3-0.6-5.5-1.9c-1.3-1.2-1.9-2.9-1.9-5.1c0-2.2,0.9-4,2.7-5.2c1.8-1.3,4.2-1.9,7.3-1.9h4.6v-2.3c0-1.4-0.4-2.4-1.2-3.2
			c-0.8-0.8-2-1.2-3.5-1.2c-1.4,0-2.5,0.3-3.3,1c-0.8,0.7-1.3,1.5-1.3,2.5l-4,0l0-0.1c-0.1-1.7,0.7-3.2,2.4-4.6
			c1.7-1.4,3.9-2.1,6.5-2.1c2.6,0,4.8,0.7,6.4,2c1.6,1.3,2.4,3.3,2.4,5.8v11.2c0,0.8,0,1.6,0.1,2.4s0.2,1.5,0.5,2.3H645.4z
			 M638.4,499.2c1.5,0,2.9-0.4,4.1-1.2c1.2-0.8,2-1.7,2.4-2.7v-3.8h-4.7c-1.7,0-3.1,0.4-4.1,1.3c-1,0.9-1.5,1.9-1.5,3
			c0,1,0.3,1.8,1,2.4S637.2,499.2,638.4,499.2z"/>
	</g>
</g>
</svg>
